<svg xmlns="http://www.w3.org/2000/svg" xmlns:xlink="http://www.w3.org/1999/xlink" version="1.1" id="Layer_1" x="0px" y="0px" width="100px" height="100px" viewBox="0 0 100 100" enable-background="new 0 0 100 100" xml:space="preserve">
<g>
	<path d="M37.952,1.659c-0.017-0.027-0.026-0.05-0.042-0.077c-0.094,0.084-0.184,0.171-0.253,0.266   c-1.387,1.866-2.4,3.401-3.14,4.523c-0.383,0.58-0.713,1.081-0.992,1.472c-3.565,4.989-4.267,8.849-4.23,11.216   c0.059,3.874,1.146,6.204,1.729,7.457c0.111,0.24,0.204,0.438,0.267,0.597c0.043,0.089,0.071,1.486,0.071,1.486   c-0.176,3.812-0.928,18.271-1.503,22.865c-0.224,1.792-0.668,4.151-1.139,6.645c-0.894,4.741-1.907,10.109-1.697,13.152   c0.233,3.39,2.681,12.342,4.143,17.691c0.573,2.093,0.986,3.606,1.121,4.234c0.152,0.607,0.845,6.183,0.845,6.183   c0.396,0.062,1.131,0.152,2.065,0.152c2.041,0,4.99-0.423,7.576-2.412c-0.198-0.474-0.69-1.477-0.948-1.742   c0,0-2.082-6.739-2.07-9.972c0.008-2.354-0.848-16.496-0.81-17.448c0.08-1.996,0.081-4.1,0.081-4.122V63.74l0.039-0.077   c0.251-0.506,0.465-1.078,0.456-1.226c-0.075-0.295,0.138-0.554,0.365-0.827c0.243-0.297,7.689-19.689,7.901-22.769l0.012-0.247   c-3.887-4.044-6.34-6.615-7.945-8.334c-5.515-5.905-12.241-12.903-2.588-25.3l0.619,0.012C29.682,15.422,33.6,22.122,38.272,27.45   c0.7,0.8,1.418,1.566,2.114,2.313c0.141,0.152,0.294,0.314,0.448,0.479c0.052,0.056,0.104,0.109,0.157,0.167   c0.148,0.158,0.301,0.319,0.458,0.486c0.058,0.061,0.117,0.123,0.177,0.186c0.144,0.152,0.29,0.307,0.439,0.466   c0.044,0.044,0.083,0.087,0.127,0.133c0.167,0.176,0.341,0.357,0.515,0.543c0.089,0.094,0.18,0.189,0.273,0.286   c0.093,0.097,0.188,0.198,0.283,0.297c1.366,1.433,3.056,3.198,5.169,5.397l0.11,0.114l0,0c1.38,1.436,2.786,2.896,4.139,4.3   c5.904,6.133,9.537,9.913,9.799,10.302c0.487,0.732,1.035,1.972,1.113,3.261c0.079,1.298-0.654,2.349-0.654,2.349   c-4.088,5.289-4.277,13.421-4.38,17.829c-0.019,0.822-0.31,9.761-0.398,9.761c-0.002,0-0.004,0-0.007,0   c-0.083,0.003-2.15,5.897-2.15,5.897c0.322,0.203,1.08,0.643,2.767,1.486c2.61,1.306,6.732,1.257,7.289,0.89   c0.696-2.774,1.574-9.342,2.335-11.858c1.025-3.389,6.027-21.96,6.573-23.53c1.256-4.138,2.345-7.724,1.062-10.851   c-4.78-10.029-13.851-25.136-15.053-26.702c-3.769-4.908-3.811-5.296-3.826-5.999s1.933-10.299,2.32-11.349   c-0.924-0.703-4.991-3.502-10.129-2.68c-0.007,0.002-0.015,0.002-0.022,0.004c-0.072,0.012-0.142,0.024-0.214,0.036   c-0.983,0.254-2.424,0.455-3.882,0.607c-0.202,0.027-0.399,0.051-0.592,0.072c-0.045,0.007-0.088,0.012-0.132,0.017   c-0.327,0.037-0.642,0.07-0.944,0.099c-0.931,0.089-1.753,0.138-2.46,0.14c-0.489,0.029-0.876,0.051-1.106,0.061   C39.989,2.459,38.494,2.476,37.952,1.659z"/>
	<path d="M38.515,1.188c-0.013,0.005-0.028,0.012-0.042,0.02l0.029,0.012C38.512,1.2,38.514,1.19,38.515,1.188z"/>
	<path d="M38.591,1.272c0.209,0.167,0.789,0.404,2.382,0.404c1.23-0.075,2.842-0.193,4.362-0.355c0.847-0.114,1.8-0.259,2.869-0.44   C46.862,0.69,44.881,0.47,42.97,0.47c-2.009,0-3.51,0.247-4.454,0.715C38.518,1.195,38.531,1.227,38.591,1.272z"/>
</g>
</svg>