<svg xmlns="http://www.w3.org/2000/svg" xmlns:xlink="http://www.w3.org/1999/xlink" version="1.1" id="Layer_1" x="0px" y="0px" width="100px" height="100px" viewBox="0 0 100 100" enable-background="new 0 0 100 100" xml:space="preserve">
<path fill="#000000" d="M61.162,30.301c1.969-1.97,3.011-4.282,3.011-6.687c0-4.702-2.508-6.713-3.573-7.355L60.426,5.015h-2.689  l-0.196,10.964c-1.396,0.403-4.876,1.708-7.54,5.209c-2.665-3.501-6.146-4.806-7.541-5.209L42.264,5.015h-2.689l-0.173,11.244  c-1.065,0.642-3.573,2.653-3.573,7.355c0,2.405,1.042,4.717,3.002,6.679c4.739,4.888,5.042,10.575,0.812,15.215  c-3.675,4.031-3.108,7.874-2.97,8.553c0.029,2.033,1.071,8.393,2.506,17.148c1.084,6.62,2.435,14.857,3.646,23.119l0.096,0.656  h3.414l-3.91-38.825c-0.084-0.843,0.53-1.595,1.373-1.68c0.839-0.081,1.596,0.53,1.68,1.373l3.94,39.132h7.663l0.096-0.656  c1.21-8.262,2.561-16.5,3.646-23.119c1.435-8.756,2.477-15.116,2.506-17.148c0.138-0.68,0.705-4.522-2.97-8.554  C56.128,40.868,56.431,35.181,61.162,30.301z"/>
</svg>