<svg xmlns="http://www.w3.org/2000/svg" xmlns:xlink="http://www.w3.org/1999/xlink" version="1.1" id="Your_Icon" x="0px" y="0px" width="100px" height="100px" viewBox="0 0 100 100" enable-background="new 0 0 100 100" xml:space="preserve">
<g>
	<g>
		<g>
		</g>
	</g>
	<g>
	</g>
</g>
<path d="M62.959,93.312c-4.899,0.701-9.506-0.033-9.506-0.033c-0.195,1.764-1.568-68.594-3.351-68.398  c-2.016,0.222-2.528,60.265-2.332,68.398c0.021,0.904-9.943,1.049-9.995,0c-1.764-35.473-4.312-73.167-2.613-86.886  c0,0,16.821-0.915,29.267,0C67.271,18.708,62.959,93.312,62.959,93.312z M50.808,8.549c0.752,0,11.009-0.49,12.021-1.176  C59.66,7.177,36.697,7.569,36.697,7.569C37.448,8.157,50.057,8.549,50.808,8.549z M55.242,11.848c0,0,0.098,4.312,2.45,4.475  c0.958,0.067,7.096,0.327,7.096,0.327v-1.249c0,0-4.854,0.035-6.629-0.133c-1.447-0.137-1.799-3.42-1.799-3.42H55.242z   M36.697,12.216l-0.163,0.874l4.899,0.604l0.163-0.866L36.697,12.216z M50.519,9.019c-0.494,0-0.895,0.4-0.895,0.895  c0,0.494,0.4,0.894,0.895,0.894c0.493,0,0.894-0.4,0.894-0.894C51.412,9.419,51.012,9.019,50.519,9.019z M51.617,9.585  c0,0,0.122,0.318,0,0.563c-0.123,0.245,1.348-0.049,1.371-0.282C53.014,9.634,51.617,9.585,51.617,9.585z M35.546,9.913v0.833  c0,0,11.512,1.197,15.364,1.127c3.397-0.062,13.282-1.446,13.485-1.519c0.204-0.074,0-0.809,0-0.809S54.299,11.07,50.91,11.138  C47.043,11.215,35.546,9.913,35.546,9.913z M43.762,11.848c0,0-0.351,3.283-1.798,3.42c-1.775,0.168-6.629,0.133-6.629,0.133v1.249  c0,0,6.138-0.26,7.097-0.327c2.351-0.164,2.449-4.475,2.449-4.475H43.762z M49.567,12.412l-0.197,8.158c0,0,2.467-0.784,2.581-1.829  c0.114-1.045,0.229-6.329,0.229-6.329S49.763,12.518,49.567,12.412z M45.222,13.596c0,0,1.11,0.179,1.159,0  c0.049-0.18,0.246-4.72,0.246-4.72h-1.111C45.549,9.202,45.222,13.596,45.222,13.596z M54.556,8.876h-1.109  c0,0,0.195,4.541,0.244,4.72c0.049,0.179,1.159,0,1.159,0S54.523,9.202,54.556,8.876z M38.265,90.699v2.254  c0,0,1.11,0.557,1.307,0.424c0.196-0.129,0-2.514,0-2.514S38.46,90.83,38.265,90.699z M41.694,93.396  c0.229,0.152,5.357-0.246,5.52-0.312c0.164-0.066,0.186-2.586-0.228-2.58c-2.198,0.023-5.292,0.359-5.292,0.359  C41.27,90.535,41.466,93.248,41.694,93.396z M53.827,90.504c0,0-0.145,2.154,0.116,2.352c0.262,0.195,7.284,0.359,7.839,0.162  c0.557-0.195,0.557-2.318,0.523-2.775C62.272,89.783,54.336,90.145,53.827,90.504z"/>
</svg>