<svg xmlns="http://www.w3.org/2000/svg" xmlns:xlink="http://www.w3.org/1999/xlink" version="1.1" id="Your_Icon" x="0px" y="0px" width="100px" height="100px" viewBox="0 0 100 100" enable-background="new 0 0 100 100" xml:space="preserve">
<path d="M99.218,28.051L87.593,6.47c-0.076-0.138-0.205-0.241-0.361-0.281L63.843,0.164c-0.245-0.076-0.514,0.049-0.638,0.272  c-0.027,0.049-2.959,4.949-13.236,4.949c-10.26,0-12.933-4.762-12.959-4.807c-0.125-0.236-0.384-0.375-0.652-0.29L12.849,6.43  c-0.152,0.04-0.286,0.143-0.357,0.281L0.786,28.229c-0.084,0.152-0.094,0.33-0.027,0.486c0.067,0.161,0.201,0.281,0.362,0.331  c0.026,0.009,2.82,0.875,8.559,3.976c5.181,2.793,8.684,5.623,8.72,5.649c0.139,0.112,0.312,0.147,0.473,0.121  c0.165-0.036,0.312-0.138,0.393-0.29l3.437-6.323c0.799,11.419,1.557,26.882,0.991,39.333c-0.179,3.994-0.848,25.896-0.857,26.115  c-0.009,0.29,0.205,0.544,0.491,0.584c0.121,0.014,12.027,1.646,27.624,1.646c9.166,0,17.797-0.558,25.66-1.646  c0.285-0.04,0.5-0.294,0.491-0.584c-0.01-0.219-0.679-22.121-0.857-26.115c-0.571-12.531,0.201-28.102,1.009-39.597l3.489,6.409  c0.081,0.151,0.224,0.254,0.389,0.29c0.17,0.026,0.344-0.009,0.469-0.121c0.035-0.027,3.543-2.856,8.725-5.65  c5.738-3.102,8.527-3.967,8.555-3.976c0.169-0.049,0.299-0.169,0.365-0.326C99.307,28.381,99.298,28.203,99.218,28.051z"/>
</svg>