<svg xmlns="http://www.w3.org/2000/svg" xmlns:xlink="http://www.w3.org/1999/xlink" version="1.1" id="Layer_3" x="0px" y="0px" width="100px" height="100px" viewBox="0 0 100 100" enable-background="new 0 0 100 100" xml:space="preserve">
<g>
	<path d="M48.403,26.955c0.194,0.456,0.372,0.883,0.53,1.273c1.292-1.195,5.506-3.986,9.26-6.472c2.72-1.802,5.07-3.359,5.681-3.892   c0.746-0.653,1.09-1.124,1.117-1.526c0.021-0.33-0.16-0.68-0.628-1.208c-0.981-1.114-4.629-3.706-5.723-4.475   c-0.912-0.641-1.855-0.758-2.347-0.771c-0.375,0.929-1.972,4.834-3.261,7.188C51.672,19.557,48.786,26.087,48.403,26.955z"/>
	<path d="M46.534,26.922c0.906,0.72,1.576,1.275,2.077,1.8c-0.891-2.253-2.613-6.008-4.072-9.187   c-1.073-2.337-1.999-4.357-2.493-5.543c-0.599-1.437-0.942-2.543-1.16-3.544c-0.299,0.031-0.888,0.148-1.763,0.577   c-1.678,0.82-6.261,3.714-7.124,5.677c-0.229,0.597,0.639,1.337,1.737,2.272l0.313,0.267c0.606,0.52,2.861,1.828,5.249,3.212   C42.094,24.075,45.264,25.913,46.534,26.922z"/>
	<path d="M78.494,66.402c-0.965,0.076-4.711,0.369-7.18,0.369c-0.805,0-1.473-0.032-1.864-0.111l0.098-0.475   c1.515,0.311,7.736-0.172,8.933-0.269c-0.035-1.226-0.051-2.196-0.037-2.647c0.064-1.922,0-9.545-0.256-11.852   c-0.256-2.306,0-4.099,0-5.188s-1.602-11.915-1.984-15.438c-0.385-3.523-1.28-14.156-1.857-15.694   c-0.576-1.537-2.818-3.587-2.818-3.587s-0.256-0.448-0.514-0.832c-0.256-0.385-3.138-1.153-3.972-1.345   c-0.832-0.192-1.921-0.578-2.049-1.154c-0.08-0.361-0.716-0.747-1.46-1.064c0.341,0.545,1.087,1.765,1.482,2.558   c0.146,0.289,0.281,0.65,0.06,0.883c-0.091,0.096-0.216,0.142-0.384,0.142c-0.393,0-1.021-0.245-2.039-0.697   c-0.779-0.347-1.715-0.987-2.623-1.606c-1.086-0.741-2.211-1.508-2.814-1.578c-0.932-0.105-1.091,0.226-1.092,0.229l0,0   c-0.084,0.205-0.172,0.37-0.245,0.504c-0.03,0.057-0.062,0.11-0.086,0.161c-0.062,0.162,0.188,0.94,0.539,1.689   c0.549,0.021,1.59,0.159,2.587,0.86c1.416,0.993,4.816,3.428,5.809,4.549c0.408,0.465,0.783,0.974,0.746,1.558   c-0.037,0.548-0.418,1.104-1.281,1.857c-0.631,0.551-2.965,2.099-5.68,3.897c0.275,0.547,0.821,1.376,1.793,1.914   c1.555,0.859,5.405,1.713,5.444,1.722l-0.104,0.471c-0.16-0.036-3.959-0.878-5.574-1.77c-1.049-0.581-1.651-1.464-1.965-2.068   c-3.653,2.421-8,5.312-8.98,6.32c0.282,0.725,0.473,1.288,0.538,1.623c0.128,0.345,0.223,0.721,0.291,1.159   c0.286,1.847,1.272,16.777,1.315,17.412c0.004,0.108,0.379,10.332,0,24.558c-0.373,13.943-1.144,24.025-1.181,24.51h0.747   c0.721-0.048,3.508,0.721,7.109,0.625c3.604-0.097,11.58-2.162,13.214-2.69c1.633-0.527,4.788-2.724,4.788-2.724   s-0.064-0.319-0.258-1.151c-0.768-2.05-3.203-15.949-3.203-15.949s2.18,0.769,3.717,0.832s2.689-0.319,2.689-0.319   S78.615,70.43,78.494,66.402z M63.773,39.057c0.576-2.05,1.763-8.648,1.812-8.969c0,0,0.815,12.684,0.944,16.655   c0.128,3.972,1.09,11.657,1.537,13.13c0.449,1.475,0.449,1.475,0.449,1.475s-2.756-5.572-3.203-6.599   c-0.449-1.024-1.985-3.778-1.985-4.419c0-0.64,0.256-4.484-0.769-5.958C62.493,44.309,63.198,41.107,63.773,39.057z M66.562,69.509   l-4.064-8.1l-1.611-8.597l1.696-1.389l0.306,0.373l-1.476,1.208l1.554,8.281l3.723,7.401l1.494-1.535l0.346,0.337L66.562,69.509z"/>
	<path d="M41.984,1.318c-0.014,0.021-1.433,2.113-1.157,4.773c0.042,0.403,0.076,0.779,0.109,1.14   c0.195,2.119,0.335,3.649,1.555,6.575c0.491,1.179,1.46,3.291,2.487,5.528c1.094,2.386,2.265,4.937,3.166,7.017   c0.754-1.705,3.23-7.253,4.467-9.509c1.332-2.434,3.004-6.558,3.279-7.243c-0.263-0.559-0.738-1.685-0.531-2.101   c0.027-0.055,0.061-0.114,0.095-0.175c0.123-0.225,0.274-0.506,0.368-0.93c0.06-0.269,0.09-0.572,0.09-0.902   c0-1.189-0.837-3.852-1.695-4.48l0.105-0.144c-1.7,0.118-4.702,0.397-4.702,0.397h-1.282c0,0-4.804-0.448-5.701-0.448   c-0.274,0-0.561,0.145-0.85,0.367L41.984,1.318z"/>
	<path d="M56.395,5.49c0,0.326-0.027,0.619-0.08,0.894c0.229-0.063,0.539-0.091,0.955-0.043c0.724,0.083,1.846,0.848,3.03,1.658   c0.89,0.607,1.81,1.235,2.55,1.563c0.393,0.175,1.545,0.686,1.857,0.659c-0.006-0.047-0.029-0.146-0.122-0.33   c-0.501-1.002-1.623-2.779-1.635-2.797l0.202-0.129c-0.33-0.125-0.668-0.235-0.979-0.321c-1.152-0.32-3.27-2.754-4.101-3.523   c-0.832-0.769-1.857-2.306-2.755-2.306c-0.125,0-0.326,0.009-0.58,0.023C55.693,1.845,56.395,4.417,56.395,5.49z"/>
	<path d="M33.109,8.449c0,0-0.428,1.436-0.652,2.173c-0.125,0.415-0.099,0.779,0.003,0.847c0.009,0.006,0.229,0.138,1.021-0.525   c1.166-0.977,2.453-1.724,3.392-2.271c0.332-0.193,0.618-0.359,0.827-0.494c0.261-0.169,0.53-0.429,0.789-0.68   c0.543-0.525,1.103-1.067,1.563-0.608c0.043,0.043,0.088,0.087,0.137,0.135c0.083,0.082,0.175,0.172,0.268,0.268   c-0.001-0.006-0.002-0.012-0.002-0.018c-0.033-0.359-0.067-0.734-0.109-1.135c-0.201-1.942,0.422-3.565,0.857-4.429   c-0.462,0.474-0.915,1.034-1.322,1.409c-0.833,0.769-2.947,3.203-4.1,3.523c-1.153,0.321-2.69,0.961-2.818,1.537   c-0.016,0.069-0.045,0.136-0.086,0.198L33.109,8.449z"/>
	<path d="M49.606,97.955c0.008-0.104,0.802-10.297,1.181-24.505s0.004-24.418,0-24.52c-0.01-0.131-0.799-12.085-1.181-16.18   c-0.005-0.042-0.055-0.443-0.412-2.3c-0.397-1.02-1.187-1.743-2.96-3.152c-1.242-0.987-4.395-2.816-7.178-4.43   c-0.091-0.053-0.18-0.105-0.271-0.157c-0.268,0.449-0.953,1.513-1.898,2.354c-1.24,1.102-5.54,1.167-5.723,1.168l-0.005-0.482   c1.193-0.015,4.49-0.231,5.408-1.047c0.885-0.787,1.545-1.811,1.801-2.237c-2.211-1.285-4.051-2.365-4.631-2.863l-0.312-0.266   c-1.245-1.059-2.227-1.896-1.871-2.822c0.992-2.259,6.022-5.274,7.357-5.928c0.884-0.432,1.51-0.574,1.877-0.619   c-0.115-0.622-0.188-1.216-0.251-1.84c-0.209-0.297-0.47-0.554-0.683-0.761c-0.05-0.049-0.098-0.096-0.142-0.14   c-0.125-0.124-0.565,0.303-0.887,0.614c-0.276,0.267-0.562,0.544-0.862,0.738c-0.219,0.142-0.51,0.311-0.846,0.507   c-0.925,0.538-2.191,1.275-3.326,2.224c-0.523,0.438-0.94,0.654-1.264,0.654c-0.125,0-0.235-0.032-0.332-0.097   c-0.381-0.252-0.353-0.883-0.199-1.389c0.15-0.49,0.387-1.287,0.531-1.766C32.104,9,31.455,9.207,30.914,9.332   c-0.833,0.192-3.716,0.96-3.972,1.345c-0.256,0.384-0.512,0.832-0.512,0.832s-2.242,2.05-2.819,3.587   c-0.577,1.538-1.473,12.171-1.857,15.694c-0.384,3.523-1.986,14.349-1.986,15.438c0,1.088,0.256,2.882,0,5.188   c-0.256,2.307-0.32,9.93-0.256,11.852c0.015,0.457-0.002,1.455-0.038,2.707l0.075-0.23c1.494,0.492,8.298,0.553,8.367,0.553   l-0.004,0.482c-0.279-0.002-6.77-0.062-8.445-0.557c-0.118,4.021-0.404,10.368-0.404,10.368s1.153,0.386,2.69,0.32   c1.537-0.063,3.715-0.832,3.715-0.832s-2.435,13.899-3.203,15.948c-0.192,0.832-0.256,1.152-0.256,1.152s3.154,2.195,4.788,2.723   c1.634,0.529,9.609,2.596,13.212,2.691c3.603,0.096,6.39-0.673,7.11-0.625h2.726L49.606,97.955z M29.887,67.489l0.346-0.337   l1.494,1.535l3.723-7.401l1.554-8.281l-1.476-1.208l0.306-0.373l1.696,1.389l-1.611,8.597l-4.064,8.1L29.887,67.489z    M29.889,59.874c0.449-1.474,1.409-9.159,1.537-13.13c0.128-3.971,0.945-16.655,0.945-16.655c0.047,0.321,1.233,6.919,1.81,8.969   c0.576,2.05,1.281,5.251,1.217,5.315c-1.025,1.474-0.769,5.318-0.769,5.958c0,0.642-1.537,3.396-1.985,4.419   c-0.448,1.025-3.203,6.6-3.203,6.6S29.44,61.35,29.889,59.874z M47.505,31.464c0.7,0,1.268,0.568,1.268,1.268   c0,0.701-0.568,1.268-1.268,1.268c-0.701,0-1.268-0.567-1.268-1.268C46.237,32.032,46.804,31.464,47.505,31.464z M47.028,67.58   c-0.7,0-1.267-0.566-1.267-1.27c0-0.697,0.567-1.267,1.267-1.267c0.701,0,1.268,0.567,1.268,1.267   C48.295,67.014,47.729,67.58,47.028,67.58z M47.505,50.242c-0.701,0-1.268-0.567-1.268-1.268c0-0.701,0.567-1.269,1.268-1.269   c0.7,0,1.268,0.567,1.268,1.269C48.773,49.675,48.205,50.242,47.505,50.242z"/>
</g>
</svg>