<svg xmlns:dc="http://purl.org/dc/elements/1.1/" xmlns:cc="http://creativecommons.org/ns#" xmlns:rdf="http://www.w3.org/1999/02/22-rdf-syntax-ns#" xmlns:svg="http://www.w3.org/2000/svg" xmlns="http://www.w3.org/2000/svg" xmlns:sodipodi="http://sodipodi.sourceforge.net/DTD/sodipodi-0.dtd" xmlns:inkscape="http://www.inkscape.org/namespaces/inkscape" width="100" height="100" viewBox="0 0 80 80" version="1.1" id="svg2" inkscape:version="0.48.2 r9819" sodipodi:docname="raincoat.svg">
  <metadata id="metadata10">
    <rdf:RDF>
      <cc:Work rdf:about="">
        <dc:format>image/svg+xml</dc:format>
        <dc:type rdf:resource="http://purl.org/dc/dcmitype/StillImage"/>
        <dc:title/>
      </cc:Work>
    </rdf:RDF>
  </metadata>
  <defs id="defs8"/>
  <sodipodi:namedview pagecolor="#ffffff" bordercolor="#666666" borderopacity="1" objecttolerance="10" gridtolerance="10" guidetolerance="10" inkscape:pageopacity="0" inkscape:pageshadow="2" inkscape:window-width="1366" inkscape:window-height="706" id="namedview6" showgrid="true" inkscape:zoom="5.17" inkscape:cx="50" inkscape:cy="50" inkscape:window-x="-8" inkscape:window-y="-8" inkscape:window-maximized="1" inkscape:current-layer="svg2" inkscape:snap-grids="false">
    <inkscape:grid type="xygrid" id="grid3807"/>
  </sodipodi:namedview>
  <path style="fill:#000000;stroke:none" d="m 39.212919,0.69222877 c -0.732366,-0.0097 -1.462296,0.172308 -2.057374,0.54006303 -2.980618,1.842119 -4.815781,5.504431 -5.580623,8.9238582 -0.489882,2.190105 1.737169,4.648559 0.797231,6.686466 -2.243496,4.86417 -10.194711,4.586263 -13.372933,8.898144 -6.992716,9.486969 -5.669987,21.910528 -10.0296997,33.920951 1.3805367,2.610724 5.7781507,3.989363 8.4352337,2.700307 3.395451,-10.755061 7.492183,-20.696057 7.483698,-20.059398 0,0 -0.123193,28.762464 -0.488627,35.824024 15.032825,0.510216 18.02058,2.466984 32.96942,-1.285857 C 56.404693,66.444222 56.700363,64.449964 55.980519,58.787329 l -0.488628,-0.231447 -4.011879,-1.543029 -0.385761,-0.154314 0.154314,-0.385757 c 0,0 0.77892,-1.961512 1.568751,-4.449072 0.789828,-2.487558 1.590248,-5.502674 1.594466,-7.483697 0.0029,-1.485471 -0.590116,-3.78837 -1.182992,-5.683496 -0.592873,-1.895125 -1.18299,-3.394665 -1.18299,-3.394665 l 0.771516,-0.308605 c 0,0 0.606059,1.519735 1.208705,3.446098 0.602648,1.926365 1.212309,4.247454 1.208709,5.940668 -0.0045,2.188768 -0.820446,5.196398 -1.620183,7.715152 -0.73198,2.305365 -1.347219,3.840762 -1.465878,4.140466 l 4.114748,1.774487 0.9001,0.565777 c 2.226928,0.749371 2.474545,0.692089 3.548973,1.080121 3.021861,-16.611164 5.132312,-16.024735 2.211677,-26.437257 -1.709093,-4.097417 -2.942382,-5.911942 -5.889234,-9.232464 -2.304806,-2.597068 -6.864013,-1.743376 -8.02376,-4.886262 -0.129429,0.189096 -0.21466,0.326126 -0.360041,0.540058 -1.69297,2.491281 -4.597779,6.796556 -9.181029,13.090042 -1.087599,14.892688 0,44.567864 0,44.567864 l -0.82295,0.02567 c 0,0 -1.107123,-29.789312 0,-44.7736 l 0,-0.102862 0.07718,-0.102863 c 4.640036,-6.366415 7.550069,-10.65363 9.25818,-13.167194 0.364185,-0.535913 0.638986,-0.958385 0.900103,-1.337293 0.332174,-1.730693 2.498608,-3.288416 2.906041,-5.143432 0.09108,-0.414595 0.168102,-0.89609 0,-1.28586 C 49.737311,6.8143248 45.397814,2.6057028 40.498795,0.92364677 40.101812,0.78733777 39.652357,0.69798377 39.21294,0.69219977 z M 42.813323,7.764453 c 0.223943,-0.018339 0.445723,-0.016005 0.694363,0 1.409883,0.090945 5.925541,2.615747 6.686469,3.806142 0.173832,0.271935 0.208817,0.659143 0.154297,0.977251 -1.265082,2.42697 -3.94024,6.826161 -6.840767,10.338305 -1.115188,0.271851 -0.817353,-1.966986 -1.903073,-1.594464 -2.063221,0.707891 0.09108,6.574803 -2.057373,6.197842 -2.038847,-0.357741 -0.115606,-4.702923 -1.131554,-6.506447 -1.04977,-1.863557 -3.711592,-0.822475 -4.294772,-2.880327 -0.362538,-1.279283 0.94898,-2.571408 1.903071,-3.497531 2.681727,-2.603116 3.430288,-6.5669181 6.789338,-6.840771 z m -5.169149,14.633072 0,0.797231 c -0.997456,0.02399 -1.478362,0.590447 -1.851639,1.440162 -0.373277,0.849717 -0.528114,1.95962 -0.617213,2.854611 l 0,0.02567 0,0.02567 c -0.158848,0.698032 -0.628306,1.375502 -1.285862,1.723049 -0.01384,0.469595 -0.401415,0.848666 -0.874381,0.848666 -0.48176,0 -0.874383,-0.392622 -0.874383,-0.874385 0,-0.48176 0.392623,-0.874381 0.874383,-0.874381 0.187037,0 0.346602,0.07983 0.488628,0.18001 0.404051,-0.221515 0.695956,-0.658772 0.822947,-1.131554 0.0019,-0.01976 0.04938,-0.0313 0.05143,-0.05143 0.09083,-0.902678 0.207098,-2.068266 0.642928,-3.060344 0.445545,-1.014216 1.296884,-1.871305 2.623155,-1.903067 z m -10.106854,9.592508 6.583596,0 0,0.822948 -6.583596,0 0,-0.822948 z m 14.221597,2.520282 c 0.351649,0 0.642933,0.265558 0.642933,0.617212 0,0.351647 -0.291284,0.64293 -0.642933,0.64293 -0.351646,0 -0.642927,-0.291283 -0.642927,-0.64293 0,-0.351649 0.291281,-0.617212 0.642927,-0.617212 z m 0,7.226525 c 0.351649,0 0.642933,0.291282 0.642933,0.64293 0,0.351649 -0.291284,0.642931 -0.642933,0.642931 -0.351646,0 -0.642927,-0.291282 -0.642927,-0.642931 0,-0.351648 0.291281,-0.64293 0.642927,-0.64293 z m 0,7.252245 c 0.351649,0 0.642933,0.291282 0.642933,0.642928 0,0.351646 -0.291284,0.617216 -0.642933,0.617216 -0.351646,0 -0.642927,-0.265559 -0.642927,-0.617216 0,-0.351646 0.291281,-0.642928 0.642927,-0.642928 z m 13.218631,5.400608 c 0.527468,0 0.951535,0.449785 0.951535,0.977251 0,0.527468 -0.424067,0.951539 -0.951535,0.951539 -0.527471,0 -0.951536,-0.424071 -0.951536,-0.951539 0,-0.527466 0.424065,-0.977251 0.951536,-0.977251 z m -13.218631,1.851635 c 0.351649,0 0.642933,0.265559 0.642933,0.617213 0,0.351647 -0.291284,0.642926 -0.642933,0.642926 -0.351646,0 -0.642927,-0.291279 -0.642927,-0.642926 0,-0.351649 0.291281,-0.617213 0.642927,-0.617213 z m -26.102931,3.240365 c 0.52747,0 0.951537,0.449781 0.951537,0.977249 0,0.527472 -0.424067,0.951537 -0.951537,0.951537 -0.527468,0 -0.951539,-0.424065 -0.951539,-0.951537 0,-0.527468 0.424071,-0.977249 0.951539,-0.977249 z m 11.058385,0.488627 9.052446,0 0,0.822946 -9.052446,0 0,-0.822946 z m 14.813094,0 9.052444,0 0,0.822946 -9.052444,0 0,-0.822946 z m 0.231446,3.497534 c 0.351646,0 0.642928,0.291282 0.642928,0.64293 0,0.351648 -0.291282,0.642927 -0.642928,0.642927 -0.351649,0 -0.642929,-0.291279 -0.642929,-0.642927 0,-0.351648 0.29128,-0.64293 0.642929,-0.64293 z m 0,7.252243 c 0.351646,0 0.642928,0.265559 0.642928,0.617213 0,0.351648 -0.291282,0.642926 -0.642928,0.642926 -0.0958,0 -0.175666,-0.01351 -0.257179,-0.05143 -0.06985,-0.02984 -0.125141,-0.07727 -0.18001,-0.12861 -0.06577,-0.06145 -0.118555,-0.12205 -0.154316,-0.205715 -0.03223,-0.07618 -0.05143,-0.169233 -0.05143,-0.25715 0,-0.09495 0.01434,-0.17623 0.05143,-0.257151 0.03575,-0.08104 0.08856,-0.12205 0.154316,-0.18001 0.115256,-0.101576 0.269283,-0.180039 0.437195,-0.180039 z" id="path3001" inkscape:connector-curvature="0"/>
  <g id="g3906" style="fill:#000000;stroke:none" transform="translate(2.516589,0.54708455)"/>
  <g id="g3939" style="fill:#000000;stroke:none" transform="translate(5.7717418,-2.2156924)"/>
</svg>