<svg xmlns="http://www.w3.org/2000/svg" xmlns:xlink="http://www.w3.org/1999/xlink" version="1.1" id="Layer_1" x="0px" y="0px" width="75px" height="75px" viewBox="0 0 75 75" enable-background="new 0 0 75 75" xml:space="preserve">
<path d="M29.268,64.127l-14.014-0.842l0.043-0.668l14.077,0.846L29.268,64.127z M45.555,63.255l13.825-1.661l-0.081-0.605  l-13.852,1.665L45.555,63.255z M59.425,61.929l-13.811,1.659l0.732,4.063L60.06,66.72L59.425,61.929z M15.232,63.623l-0.292,4.452  l13.629,0.423l0.645-4.036L15.232,63.623z M29.907,9.772c0.254,1.101-0.507,0.593-0.507,0.593s-0.321-0.976,0.419-3.521  c-1.527-0.049-2.902-0.102-4.017-0.159c-0.008,0.023-0.675,1.993-0.423,3.086c0.05,0.216,0.06,0.368,0.045,0.476  c2.586,0.275,6.482,0.56,11.482,0.55c-0.039-1.854-0.099-3.184-0.129-3.768c-2.232-0.051-4.483-0.108-6.501-0.171  C30.119,7.366,29.698,8.868,29.907,9.772z M25.533,44.186c-0.083,0-0.156-0.062-0.167-0.147c-0.013-0.093,0.052-0.178,0.146-0.189  l0.434-0.061l-0.391-1.4l-0.463,0.102c-0.012,0.002-0.024,0.003-0.036,0.003c-0.078,0-0.148-0.054-0.166-0.134  c-0.019-0.092,0.039-0.181,0.131-0.2l0.443-0.096l-0.366-1.312l-0.585,0.312c-0.025,0.012-0.052,0.019-0.08,0.019  c-0.061,0-0.119-0.032-0.149-0.089c-0.044-0.084-0.012-0.186,0.07-0.23l0.652-0.347l-0.185-0.659l-1.43,0.383l0.119,0.281  c0.036,0.086-0.004,0.186-0.09,0.221c-0.021,0.009-0.044,0.014-0.066,0.014c-0.066,0-0.128-0.038-0.156-0.103l-0.136-0.324  l-1.423,0.384l0.285,0.537c0.044,0.081,0.013,0.185-0.07,0.228c-0.025,0.015-0.053,0.021-0.08,0.021  c-0.06,0-0.119-0.033-0.149-0.091l-0.321-0.605l-1.26,0.339l0.215,1.136l0.492-0.214c0.087-0.036,0.185,0.002,0.223,0.088  c0.037,0.087-0.002,0.185-0.088,0.224l-0.563,0.243l0.274,1.455l0.636-0.161c0.091-0.024,0.183,0.03,0.206,0.122  c0.023,0.09-0.031,0.183-0.122,0.204l-0.656,0.169l0.212,1.126l0.329-0.178c0.082-0.045,0.185-0.015,0.229,0.067  c0.044,0.084,0.014,0.186-0.068,0.229l-0.424,0.231l0.14,0.74l1.501-0.398l-0.069-0.439c-0.015-0.091,0.049-0.178,0.142-0.192  c0.09-0.013,0.178,0.049,0.193,0.14l0.063,0.406l1.562-0.414l-0.246-0.495c-0.042-0.084-0.007-0.185,0.077-0.227  c0.083-0.041,0.185-0.007,0.227,0.077l0.276,0.557l1.517-0.402l-0.283-1.015l-0.48,0.065C25.548,44.185,25.541,44.186,25.533,44.186  z M59.255,60.652L45.387,62.32l-2.443-13.577L39.22,36.384l-2.963-7.28l-2.539,7.534l-1.355,8.127l-2.935,18.362l-14.108-0.848  l0.537-8.204l1.27-13.204l1.015-14.561l1.608-9.481c0,0,1.608-6.941,2.117-8.126c0.508-1.185,1.439-2.201,1.439-2.201  c0.455,0.064,1.316,0.125,2.455,0.182h-0.423c-0.613,2.036-0.562,3.106-0.503,3.5c-1.971-0.225-3.029-0.426-3.053-0.431  l-0.064,0.333c0.038,0.007,2.686,0.511,7.438,0.819c-0.276,1.53-0.999,2.703-2.153,3.485c-2.644,1.793-6.708,0.973-6.748,0.964  l-0.069,0.332c0.082,0.018,1.036,0.21,2.313,0.21c1.42,0,3.237-0.239,4.692-1.225c1.242-0.842,2.018-2.102,2.306-3.745l-0.004,0  c2.097,0.129,4.582,0.218,7.42,0.211c0.078,4.182,0.04,10.806-0.657,17.639l-0.022,0.217l0.216-0.033  c0.138-0.021,3.379-0.583,3.638-6.658c0.188-4.431,0.252-7.256,0.146-11.162c1.981,0.011,3.567,0.04,4.846,0.067  c0.137,0.625,1.397,5.652,6.4,5.652c0.26,0,0.534-0.017,0.814-0.045l0.217,0.776l3.217,17.1l1.094,7.595L59.255,60.652z   M19.22,34.846l-0.127,0.72l1.306,0.135l-0.079,0.377c-0.011,0.053,0.019,0.105,0.068,0.124c0.005,0.001,0.01,0.004,0.017,0.005  c0.058,0.013,0.116-0.025,0.129-0.084l0.083-0.399l1.132,0.117l0.029,0.296c0.004,0.042,0.033,0.077,0.07,0.09  c0.015,0.006,0.032,0.009,0.049,0.007c0.06-0.006,0.104-0.059,0.098-0.119l-0.024-0.251l1.265,0.131l0.086-0.958l0.427,0.099  c0.058,0.013,0.117-0.023,0.13-0.082c0.014-0.058-0.022-0.116-0.081-0.13l-0.456-0.105l0.085-0.955l0.401,0.061  c0.06,0.009,0.115-0.031,0.125-0.091c0.008-0.06-0.031-0.115-0.092-0.125l-0.414-0.062l0.087-0.963L24,32.622  c0.06-0.008,0.102-0.062,0.094-0.122c-0.008-0.06-0.062-0.102-0.122-0.094l-0.42,0.055l0.062-0.688l-1.311-0.131l-0.022-0.594  c-0.003-0.06-0.054-0.107-0.114-0.104c-0.06,0.003-0.106,0.053-0.104,0.113l0.021,0.564l-0.971-0.097l-0.072-0.566  c-0.007-0.06-0.062-0.102-0.121-0.094c-0.06,0.008-0.102,0.062-0.094,0.123l0.065,0.516l-1.06-0.105l-0.195,1.1l-0.315,0.015  c-0.06,0.003-0.106,0.055-0.104,0.114c0.002,0.044,0.031,0.082,0.071,0.097c0.013,0.005,0.028,0.008,0.043,0.007l0.266-0.013  L19.44,33.6l-0.53-0.059c-0.059-0.007-0.113,0.036-0.12,0.096c-0.006,0.05,0.023,0.096,0.069,0.114  c0.008,0.003,0.017,0.005,0.026,0.006l0.516,0.058l-0.143,0.807l-0.329,0.045c-0.06,0.008-0.101,0.062-0.093,0.122  c0.005,0.041,0.033,0.073,0.069,0.087c0.017,0.007,0.035,0.009,0.053,0.007L19.22,34.846z M27.367,43.768  c-0.013-0.093-0.098-0.156-0.191-0.146l-0.722,0.098l-0.401-1.437l0.618-0.133c0.091-0.021,0.149-0.109,0.13-0.201  c-0.02-0.091-0.108-0.15-0.201-0.131l-0.638,0.137l-0.404-1.451l0.648-0.346c0.083-0.044,0.114-0.146,0.071-0.229  c-0.045-0.084-0.148-0.114-0.229-0.07l-0.583,0.311l-0.289-1.035l-1.983,0.532l-0.359-0.853c-0.037-0.087-0.137-0.127-0.222-0.091  c-0.086,0.038-0.126,0.137-0.091,0.222l0.342,0.811l-1.468,0.396l-0.417-0.785c-0.044-0.083-0.147-0.115-0.229-0.071  c-0.083,0.044-0.114,0.146-0.07,0.229l0.381,0.718l-1.602,0.431l0.322,1.711l-0.451,0.194c-0.086,0.037-0.125,0.138-0.088,0.224  c0.028,0.063,0.089,0.103,0.156,0.103c0.022,0,0.044-0.006,0.067-0.015l0.38-0.165l0.26,1.374l-0.805,0.207  c-0.09,0.021-0.145,0.114-0.122,0.204c0.02,0.077,0.088,0.128,0.164,0.128c0.014,0,0.028-0.002,0.042-0.005l0.784-0.201l0.236,1.254  l-0.454,0.247c-0.082,0.044-0.113,0.147-0.067,0.229c0.029,0.058,0.088,0.089,0.148,0.089c0.027,0,0.055-0.007,0.081-0.021  l0.357-0.193l0.211,1.117l1.979-0.521l0.092,0.592c0.013,0.084,0.086,0.143,0.167,0.143c0.009,0,0.018-0.002,0.026-0.002  c0.093-0.014,0.156-0.101,0.142-0.193l-0.098-0.627l1.712-0.455l0.206,0.415c0.029,0.061,0.089,0.094,0.151,0.094  c0.025,0,0.051-0.005,0.075-0.017c0.084-0.042,0.118-0.145,0.077-0.227l-0.175-0.353l1.915-0.508l-0.402-1.443l0.676-0.092  C27.314,43.944,27.379,43.86,27.367,43.768z M19.959,34.637c0.008,0.06-0.035,0.114-0.094,0.122l-0.307,0.042l-0.084,0.477  l0.991,0.103l0.059-0.28c0.012-0.058,0.07-0.096,0.128-0.083c0.057,0.012,0.097,0.069,0.084,0.129l-0.054,0.257l1.033,0.107  l-0.036-0.353c-0.005-0.06,0.039-0.113,0.098-0.119c0.06-0.006,0.113,0.037,0.119,0.097l0.039,0.397l1.002,0.104l0.061-0.674  l-0.303-0.07c-0.004-0.001-0.009-0.002-0.015-0.004c-0.049-0.02-0.08-0.073-0.067-0.126c0.014-0.059,0.072-0.095,0.13-0.082  l0.274,0.063l0.084-0.929l-0.301-0.046c-0.008-0.001-0.015-0.003-0.022-0.006c-0.047-0.018-0.078-0.067-0.069-0.118  c0.009-0.059,0.064-0.1,0.124-0.091l0.288,0.044l0.078-0.872l-0.421,0.054c-0.018,0.003-0.037,0-0.052-0.006  c-0.037-0.014-0.064-0.047-0.069-0.088c-0.008-0.059,0.035-0.114,0.094-0.122l0.47-0.061l0.04-0.438l-0.945-0.094l0.007,0.196  c0.002,0.06-0.045,0.11-0.105,0.113c-0.015,0-0.029-0.002-0.042-0.007c-0.04-0.015-0.068-0.052-0.07-0.098l-0.008-0.225  l-0.942-0.093l0.05,0.387c0.007,0.06-0.034,0.114-0.094,0.121c-0.019,0.003-0.037,0-0.053-0.005  c-0.036-0.014-0.064-0.046-0.069-0.087l-0.056-0.437l-0.833-0.083l-0.129,0.73l0.344-0.016c0.061-0.003,0.111,0.043,0.114,0.104  c0.003,0.06-0.043,0.11-0.104,0.114l-0.394,0.019l-0.166,0.936l0.418,0.047c0.061,0.006,0.102,0.061,0.096,0.12  c-0.007,0.06-0.061,0.103-0.12,0.096l-0.432-0.049l-0.128,0.725l0.237-0.033C19.896,34.536,19.951,34.577,19.959,34.637z   M46.699,14.051c1.307,1.84,3.154,2.656,5.503,2.432l-1.538-5.516l0.039,0.164c-0.473,0.113-1.041,0.15-1.91,0.15  c-0.608,0-1.362-0.019-2.334-0.042c-0.314-0.007-0.662-0.016-1.031-0.024C45.521,11.617,45.862,12.871,46.699,14.051z   M39.748,22.289c-0.205,4.864-2.418,6.026-3.131,6.276c1-10.041,0.598-19.582,0.499-21.527c0.887,0.02,1.768,0.038,2.628,0.056  C40.027,13.443,39.993,16.484,39.748,22.289z M39.387,8.403c0.029-0.491-0.348-0.911-0.837-0.938s-0.91,0.347-0.937,0.838  c-0.027,0.49,0.347,0.91,0.837,0.937C38.94,9.268,39.359,8.893,39.387,8.403z M49.182,10.851c0,0-0.088,0.058-0.194,0.092  c0.728-0.005,1.225-0.042,1.632-0.138l-0.987-3.541c0,0-0.322-0.004-0.894-0.013C49.512,9.854,49.182,10.851,49.182,10.851z   M48.675,10.257c0.225-0.976-0.283-2.647-0.4-3.013c-0.968-0.015-2.394-0.037-4.084-0.067c0.8,2.662,0.463,3.674,0.463,3.674  s-0.008,0.004-0.018,0.01c0.691,0.014,1.3,0.029,1.832,0.041c0.95,0.023,1.688,0.041,2.283,0.042  C48.637,10.886,48.57,10.707,48.675,10.257z M44.145,10.257c0.255-1.1-0.425-3.088-0.425-3.088h0.006  c-1.128-0.02-2.36-0.043-3.643-0.068c0.062,1.367,0.107,2.581,0.14,3.703c1.526,0.009,2.814,0.027,3.912,0.048  C44.084,10.749,44.073,10.57,44.145,10.257z"/>
</svg>