<svg xmlns="http://www.w3.org/2000/svg" xmlns:xlink="http://www.w3.org/1999/xlink" version="1.1" id="bikini" x="0px" y="0px" width="50.417px" height="100px" viewBox="0 0 50.417 100" enable-background="new 0 0 50.417 100" xml:space="preserve">
<ellipse cx="23.777" cy="71" rx="0.758" ry="1.049"/>
<path d="M36.733,17.615c-0.348,0-0.667-0.229-0.766-0.577c-2.837-9.951-5.835-15.142-8.912-15.43  c-4.051-0.375-8.719,7.932-11.87,14.218c-0.196,0.392-0.678,0.55-1.068,0.355c-0.394-0.198-0.552-0.677-0.354-1.069  C19.252,4.163,23.257-0.36,27.205,0.022c3.902,0.365,7.175,5.634,10.294,16.578c0.121,0.424-0.124,0.864-0.547,0.984  C36.878,17.605,36.806,17.615,36.733,17.615z"/>
<path d="M50.387,81.435l-1.249-4.105c-0.072-0.236-0.263-0.419-0.502-0.482c-0.241-0.063-0.497,0.003-0.674,0.173  c-2.31,2.198-16.164,4.753-30.564,4.753c-6.233,0.001-11.955-0.485-16.543-1.405c-0.215-0.044-0.441,0.015-0.607,0.158  c-0.167,0.144-0.258,0.357-0.246,0.578l0.177,3.5c0.016,0.31,0.229,0.573,0.527,0.653c15.247,4.089,17.508,8.84,19.502,13.03  c0.204,0.43,0.404,0.852,0.613,1.263c0.056,0.108,0.139,0.2,0.24,0.269C21.271,99.96,21.488,100,22.524,100  c1.753,0,4.943-0.145,5.078-0.152c0.256-0.011,0.486-0.158,0.604-0.388c0.169-0.331,0.342-0.686,0.524-1.06  c2.175-4.45,5.816-11.897,21.16-16.068c0.187-0.051,0.345-0.175,0.438-0.344C50.422,81.82,50.442,81.619,50.387,81.435z"/>
<path d="M38.062,18.406c-0.209-0.299-0.606-0.39-0.925-0.218c-0.319,0.172-0.459,0.562-0.323,0.898  c1.666,4.168-2.257,12.557-8.759,18.811l-6.077-0.726c-5.473-5.128-9.566-15.31-7.848-19.612c0.127-0.314,0.013-0.678-0.271-0.863  c-0.286-0.186-0.662-0.144-0.901,0.1C2.748,27.221,0.286,35.821,5.643,41.969c0.127,0.146,0.309,0.44,0.502,0.44  c0.012,0,0.024,0,0.036,0c0.181,0,0.354-0.265,0.487-0.389c3.318-3.096,6.436-3.355,14.939-3.355l6.42,0.715c0.03,0.016,0,0,0,0  c4.772,1.431,9.209,3.057,12.603,6.475c0.134,0.137,0.316,0.555,0.506,0.555c0.009,0,0.016,0,0.023,0  c0.198,0,0.385-0.462,0.515-0.61l0,0C45.13,41.86,50.165,35.759,38.062,18.406z"/>
</svg>