<svg xmlns="http://www.w3.org/2000/svg" xmlns:xlink="http://www.w3.org/1999/xlink" version="1.1" id="Your_Icon" x="0px" y="0px" width="100px" height="100px" viewBox="0 0 100 100" enable-background="new 0 0 100 100" xml:space="preserve">
<path fill="#000000" d="M75.082,75.972c0,0-11.941-29.009-8.065-38.177c2.816-2.816,5.886-5.57,5.886-11.051  c0-5.088-2.597-8.365-5.439-10.208c0,0-3.8-9.713-6.159-11.537h-1.595c0,0,5.458,8.272,5.446,11.522  c-0.021,5.629-15.133,9.204-15.167,18.361c-0.033-9.158-15.146-12.732-15.167-18.361c-0.012-3.25,5.446-11.522,5.446-11.522h-1.594  c-2.36,1.824-6.16,11.537-6.16,11.537c-2.843,1.843-5.438,5.119-5.438,10.208c0,5.481,3.068,8.235,5.884,11.051  c3.876,9.167-8.064,38.177-8.064,38.177l-0.984,2.118c8.084,2.442,15.675,6.593,17.979,8.849c3.328,3.26,5.092,8.048,8.097,8.061  c3.003-0.013,4.769-4.801,8.096-8.061c2.307-2.256,9.896-6.406,17.982-8.849L75.082,75.972z"/>
</svg>