<svg xmlns="http://www.w3.org/2000/svg" xmlns:xlink="http://www.w3.org/1999/xlink" xmlns:sketch="http://www.bohemiancoding.com/sketch/ns" width="60.9589041096px" height="100px" viewBox="0 0 89 146" version="1.1">
    <title>swimming-suit</title>
    <description>Created with Sketch (http://www.bohemiancoding.com/sketch)</description>
    <defs/>
    <g id="dress" stroke="none" stroke-width="1" fill="none" fill-rule="evenodd" sketch:type="MSPage">
        <path d="M0,108.363544 C0,108.363544 31.7857143,123 36.0238095,146 L52.9761905,146 C57.2142857,122.999745 89,108.363544 89,108.363544 L89,100 C89,100 59.9913969,108.786213 44.5,108.786213 C29.6183811,108.786212 0,100 0,100 L0,108.363544 L0,108.363544 Z M17.0011308,25.782631 C18.3670333,22.800103 25.4514803,0 25.4514803,0 L31.4054276,0 L20.2885485,25.782631 C20.2885485,25.782631 28.1123561,35.697328 30.8518709,40.579137 C34.6676604,46.7148 40.5008224,50.262076 40.5008224,50.262076 L44,50.262076 L44,56.576567 L37.6842105,56.576567 C37.6842105,56.576567 27.0756579,65 20.8549548,65 C10.1806127,65 4.0000004,53.151079 4,48.157246 C3.9999998,43.163412 15.635228,28.765159 17.0011308,25.782631 L17.0011308,25.782631 Z M71.9988692,25.782631 C70.6329667,22.800103 63.5485197,0 63.5485197,0 L57.5945724,0 L68.7114515,25.782631 C68.7114515,25.782631 60.8876439,35.697328 58.1481291,40.579137 C54.3323396,46.7148 48.4991776,50.262076 48.4991776,50.262076 L45,50.262076 L45,56.576567 L51.3157895,56.576567 C51.3157895,56.576567 61.9243421,65 68.1450452,65 C78.819387,65 85,53.151079 85,48.157246 C85,43.163412 73.364772,28.765159 71.9988692,25.782631 L71.9988692,25.782631 Z" id="swimming-suit" fill="#000000" sketch:type="MSShapeGroup"/>
    </g>
</svg>