<svg xmlns="http://www.w3.org/2000/svg" xmlns:xlink="http://www.w3.org/1999/xlink" version="1.1" id="Layer_1" x="0px" y="0px" width="100px" height="100px" viewBox="0 0 100 100" enable-background="new 0 0 100 100" xml:space="preserve">
<g>
	<path d="M89.712,72.436H10.288c-1.542,0-2.793-1.252-2.793-2.793v-0.398c0-1.098,0.643-2.094,1.643-2.545L46.12,49.987v-7.5   c0-1.542,1.251-2.793,2.793-2.793c3.183,0,5.772-2.589,5.772-5.772c0-3.183-2.59-5.772-5.772-5.772s-5.772,2.589-5.772,5.772   c0,1.542-1.251,2.793-2.794,2.793s-2.792-1.25-2.792-2.793c0-6.263,5.096-11.358,11.358-11.358s11.358,5.096,11.358,11.358   c0,5.3-3.648,9.763-8.564,11.011v4.98L90.781,66.1c1.044,0.432,1.724,1.451,1.724,2.58v0.963   C92.505,71.184,91.255,72.436,89.712,72.436z M22.372,66.85h55.621L48.974,54.828L22.372,66.85z"/>
</g>
</svg>