<svg xmlns="http://www.w3.org/2000/svg" xmlns:xlink="http://www.w3.org/1999/xlink" version="1.1" id="Layer_6" x="0px" y="0px" width="100px" height="100px" viewBox="0 0 100 100" enable-background="new 0 0 100 100" xml:space="preserve">
<path d="M31.191,33.737V23.168h14.062v-7.031H26.621v1.758v5.273v10.569H5v50.126h90V33.737H31.191z M90.43,79.293H9.57V38.308  h17.051v12.804c-3.447,0.995-5.977,4.176-5.977,7.938c0,4.556,3.706,8.262,8.261,8.262c4.556,0,8.262-3.706,8.262-8.262  c0-3.763-2.529-6.943-5.976-7.938V38.308H90.43V79.293z M28.906,55.358c2.036,0,3.691,1.656,3.691,3.691s-1.656,3.691-3.691,3.691  c-2.035,0-3.691-1.656-3.691-3.691S26.871,55.358,28.906,55.358z"/>
</svg>