<svg xmlns="http://www.w3.org/2000/svg" xmlns:xlink="http://www.w3.org/1999/xlink" version="1.1" id="Your_Icon" x="0px" y="0px" width="100px" height="100px" viewBox="0 0 100 100" enable-background="new 0 0 100 100" xml:space="preserve">
<path d="M56.907,25.164c0.05,0.019,0.101,0.032,0.151,0.05c1.022,0.347,2.108,0.429,3.264,0.247  c1.073-0.164,1.995-0.499,2.759-1.004c1.489-0.985,2.475-2.456,2.961-4.406c0.17-0.676,0.239-1.427,0.221-2.248  c-0.146-0.486-0.297-0.985-0.455-1.49c-0.296-0.934-0.726-1.749-1.287-2.443c-1.111-1.376-2.804-2.14-5.082-2.286  c-1.093-0.069-2.027,0.057-2.791,0.373c-1.768,0.726-3.062,1.944-3.876,3.649c-0.397,0.827-0.581,1.856-0.556,3.081  c0.025,1.174,0.253,2.184,0.676,3.024C53.719,23.359,55.058,24.514,56.907,25.164z"/>
<path d="M85,0h-7.753c0,0,0,38.762,0,39.394c-2.317,0-4.626,0-6.942,0c-0.045,0-0.084,0-0.128,0  c-0.085-0.074-0.168-0.146-0.25-0.221c-0.576-0.53-1.099-1.121-1.558-1.772c-0.486-0.688-0.987-1.35-1.511-1.994  c-0.284-0.354-0.575-0.705-0.872-1.046c-1.148-1.331-2.248-2.711-3.296-4.156c0-0.001,0.001-0.004,0-0.006  c-0.129-0.178-0.267-0.349-0.406-0.517c-0.983-1.184-2.217-2.123-3.702-2.819c-0.106-0.05-0.22-0.096-0.331-0.14  c-0.224-0.088-0.454-0.167-0.698-0.232c-0.121-0.032-0.25-0.06-0.377-0.087c-0.255-0.054-0.517-0.097-0.791-0.128  s-0.559-0.05-0.854-0.058c-2.48-0.057-4.97-0.082-7.45-0.082c-2.481,0-4.971-0.021-7.451-0.052c-1.61-0.019-3.12,0.066-4.527,0.262  c-0.002,0-0.004,0-0.006,0c-0.516,0.07-0.991,0.201-1.413,0.383c-0.108,0.048-0.215,0.1-0.319,0.151  c-0.209,0.104-0.411,0.212-0.604,0.331c-0.386,0.239-0.735,0.512-1.058,0.814c-0.001,0.001-0.005-0.001-0.006,0  c-0.24,0.226-0.463,0.471-0.668,0.732c-0.138,0.175-0.269,0.356-0.39,0.546c-0.243,0.381-0.453,0.794-0.634,1.238  c-0.019,0.05-0.044,0.1-0.069,0.151c-0.448,0.827-0.885,1.645-1.313,2.447c-0.196,0.373-0.392,0.734-0.587,1.081  c-0.891,1.604-1.768,3.229-2.633,4.871c-0.127,0.24-0.237,0.49-0.332,0.755c-0.094,0.265-0.172,0.546-0.232,0.837  c-0.069,0.36-0.084,0.732-0.046,1.104c0.006,0.044,0.011,0.095,0.023,0.145c0.069,0.247,0.124,0.492,0.168,0.744  c0.178,0.296,0.39,0.558,0.634,0.791c0.163,0.155,0.343,0.296,0.534,0.424c0.289,0.191,0.606,0.353,0.959,0.482  c0.007,0.003,0.015,0.012,0.018,0.023s0.006,0.024,0.006,0.046c0.55,0,1.09,0,1.64,0c0.044,0,0.083,0,0.127,0  c0.119-0.039,0.232-0.081,0.344-0.128c0.222-0.094,0.431-0.204,0.621-0.331c0.096-0.063,0.187-0.131,0.273-0.204  c0.088-0.072,0.171-0.152,0.25-0.232c0.159-0.161,0.304-0.334,0.43-0.529c0.063-0.097,0.119-0.202,0.175-0.308  c0.84-1.616,1.678-3.235,2.511-4.87c0.688-1.351,1.386-2.686,2.087-4.005c2.48,0,4.97,0,7.45,0c0.045,0,0.084,0,0.128,0  c-0.732,1.749-1.449,3.52-2.15,5.307c-0.7,1.787-1.387,3.556-2.074,5.324c-0.369,0.947-0.76,1.865-1.169,2.754  c0,0.002,0.001,0.005,0,0.006c-0.136,0.296-0.278,0.589-0.418,0.878c-0.043,0.635-0.086,1.267-0.134,1.895H38.22  c-0.126,1.673-0.271,3.314-0.43,4.93c-0.233,2.292-0.448,4.564-0.65,6.818c-0.151,1.642-0.334,3.239-0.549,4.792  c-0.486,0.145-1.073,0.215-1.768,0.202c-2.481-0.051-4.969-0.076-7.449-0.076c-2.064,0-4.123,0.038-6.181,0.12  c-0.095,0-0.221,0.013-0.385,0.031c-0.556,0.058-1.049,0.203-1.472,0.437c-1.597,0.858-2.689,2.254-3.27,4.191  c-0.151,0.486-0.304,0.966-0.461,1.439c-0.171,0.512-0.373,0.96-0.606,1.357c0.486,0.146,1.073,0.215,1.768,0.202  c2.481-0.051,4.969-0.076,7.449-0.076c2.481,0,4.969,0,7.45,0c2.48,0,4.968,0.025,7.449,0.076c1.168,0.019,2.178-0.102,3.018-0.366  c0.051-0.019,0.102-0.038,0.152-0.063c0.826-0.441,1.389-1.161,1.672-2.158c0.139-0.474,0.24-1.023,0.297-1.648  c0.209-2.216,0.43-4.45,0.656-6.698c0.234-2.26,0.448-4.495,0.65-6.704c0.058-0.645,0.184-1.188,0.373-1.629  c0.846,1.635,1.666,3.308,2.468,5.019c0.776,1.68,1.56,3.346,2.349,5.007c0.423,0.884,0.84,1.748,1.263,2.588  c0.802,1.598,1.585,3.201,2.354,4.823c0.802,1.686,1.616,3.365,2.443,5.032c0.814,1.66,1.604,3.346,2.367,5.062  c0.386,0.878,0.891,1.642,1.51,2.285c0.902,0.947,2.342,1.39,4.312,1.332c1.894-0.057,3.787-0.088,5.682-0.088  c-0.776-1.705-1.578-3.391-2.405-5.051c-0.821-1.66-1.642-3.327-2.469-5.013c-0.751-1.54-1.509-3.093-2.285-4.665  c-0.802-1.647-1.609-3.333-2.418-5.044c-0.782-1.661-1.565-3.333-2.349-5.007c-0.802-1.711-1.609-3.39-2.431-5.038  c-0.826-1.666-1.641-3.346-2.437-5.031c0.171-0.461,0.348-0.928,0.518-1.389h0.003c0.499-1.338,1.005-2.657,1.517-3.958  c0.713-1.812,1.45-3.573,2.214-5.277c0.032-0.07,0.057-0.145,0.082-0.221c0.284-0.795,0.604-1.558,0.971-2.284  c1.124,1.357,2.246,2.716,3.376,4.085c0.562,0.688,1.12,1.391,1.663,2.104c1.079,1.408,2.684,2.256,4.823,2.528  c0.625,0.082,1.246,0.116,1.878,0.116c2.02,0,4.167,0.021,6.187,0.064c0.044,0,0.084,0.02,0.128,0.063c0.003,0.011,0,0.214,0,0.225  c0,0.465,0,52.554,0,52.554H85"/>
</svg>