<svg xmlns="http://www.w3.org/2000/svg" xmlns:xlink="http://www.w3.org/1999/xlink" version="1.1" id="Layer_1" x="0px" y="0px" width="100px" height="100px" viewBox="-6.14 0 100 100" enable-background="new -6.14 0 100 100" xml:space="preserve">
<path fill="none" d="M34.382,21.787c-3.265,1.874-5.569,4.917-6.68,8.438h13.711l2.797-1.245  C42.08,25.167,38.472,22.52,34.382,21.787z"/>
<path fill="none" d="M48.371,27.127l4.646-2.069c-2.953-3.183-6.968-5.031-11.076-5.157C44.6,21.663,46.822,24.133,48.371,27.127z"/>
<path fill="none" d="M19.305,30.225h5.728c0.842-3.256,2.542-6.209,4.97-8.484C25.38,22.482,21.338,25.667,19.305,30.225z"/>
<path d="M85.664,64.474l-19.402-43.58c-0.355-0.798-1.29-1.158-2.089-0.802l-8.756,3.898c-4.516-5.369-11.509-7.872-18.038-6.261  c1.619,0.507,3.152,1.237,4.562,2.172c4.108,0.126,8.123,1.974,11.076,5.157l-4.646,2.069c0.507,0.98,0.949,2.012,1.304,3.098h8.845  c1.424,0,2.582,1.159,2.582,2.583v44.333l23.761-10.579C85.662,66.206,86.02,65.271,85.664,64.474z"/>
<path d="M41.414,30.225h3.429c-0.191-0.429-0.406-0.841-0.632-1.245L41.414,30.225z"/>
<path d="M34.382,21.787c-0.756-0.136-1.525-0.213-2.307-0.213c-0.7,0-1.392,0.058-2.072,0.167c-2.428,2.275-4.128,5.228-4.97,8.484  h2.669C28.813,26.703,31.117,23.66,34.382,21.787z"/>
<path d="M34.456,87.272c0.356,0.799,1.29,1.157,2.088,0.802l11.188-4.981H32.595L34.456,87.272z"/>
<path d="M58.52,31.225h-9.584c-0.373-1.295-0.883-2.524-1.493-3.684c-1.707-3.241-4.275-5.887-7.379-7.579  c-1.397-0.762-2.902-1.323-4.483-1.665c-1.135-0.246-2.304-0.389-3.505-0.389c-7.932,0-14.641,5.605-16.861,13.317H5.629  c-0.874,0-1.581,0.708-1.581,1.583v47.704c0,0.874,0.708,1.582,1.581,1.582H32.15h17.829h8.541c0.875,0,1.582-0.708,1.582-1.582  v-2.925V32.807C60.102,31.933,59.395,31.225,58.52,31.225z M39.168,31.225H27.423h-2.612H17.84  c2.044-5.988,7.295-10.313,13.525-10.621c0.237-0.012,0.471-0.03,0.71-0.03c1.285,0,2.53,0.177,3.721,0.499  c3.967,1.073,7.304,3.821,9.331,7.5c0.463,0.841,0.865,1.724,1.183,2.653H39.168z"/>
</svg>