<svg xmlns:dc="http://purl.org/dc/elements/1.1/" xmlns:cc="http://creativecommons.org/ns#" xmlns:rdf="http://www.w3.org/1999/02/22-rdf-syntax-ns#" xmlns:svg="http://www.w3.org/2000/svg" xmlns="http://www.w3.org/2000/svg" xmlns:sodipodi="http://sodipodi.sourceforge.net/DTD/sodipodi-0.dtd" xmlns:inkscape="http://www.inkscape.org/namespaces/inkscape" width="100" height="100" id="svg2" version="1.1" inkscape:version="0.48.4 r9939" sodipodi:docname="np-ballet-dancer.svg">
  <defs id="defs4"/>
  <sodipodi:namedview id="base" pagecolor="#ffffff" bordercolor="#666666" borderopacity="1.0" inkscape:pageopacity="0.0" inkscape:pageshadow="2" inkscape:zoom="1" inkscape:cx="50" inkscape:cy="50" inkscape:document-units="px" inkscape:current-layer="layer1" showgrid="false" inkscape:window-width="100" inkscape:window-height="100" inkscape:window-x="0" inkscape:window-y="0" inkscape:window-maximized="0"/>
  <metadata id="metadata7">
    <rdf:RDF>
      <cc:Work rdf:about="">
        <dc:format>image/svg+xml</dc:format>
        <dc:type rdf:resource="http://purl.org/dc/dcmitype/StillImage"/>
      </cc:Work>
    </rdf:RDF>
  </metadata>
  <g inkscape:label="Layer 1" inkscape:groupmode="layer" id="layer1" transform="translate(0,-952.36218)">
    <path style="fill:#000000" d="m 51.08328,1044.6855 c 0,0 -0.349952,-0.4837 -0.06559,-1.0297 0.253573,-0.4867 0.188906,-2.3456 -0.135712,-3.901 -0.12455,-0.5968 -0.226515,-1.3595 -0.226585,-1.6948 -1.51e-4,-0.9252 -0.544073,-1.8586 -1.65001,-2.8316 -1.217799,-1.1467 -0.971134,-1.2065 -0.139874,-2.2835 0.426552,-0.3642 0.662412,-0.8106 0.788389,-1.3016 0.176831,-0.6891 0.218351,-0.611 -0.09076,-2.1318 -0.347749,-1.712 -0.654207,-3.4224 -1.086741,-5.1091 -0.109417,-0.4267 -0.171466,-0.8498 -0.381032,-1.2655 -0.721616,-1.4308 -0.777587,-1.9158 -0.597748,-5.1804 0.132132,-2.3986 0.250695,-3.3247 0.589785,-4.6074 l 0.535223,-1.6273 -0.357459,-1.705 c -0.474673,-2.5851 -0.475801,-5.4016 -0.489685,-7.6174 -0.803545,-3.07725 1.368178,-7.02162 -0.296086,-9.86224 -0.421504,-0.71945 0.01003,-0.4348 -2.146475,-1.29391 -1.507918,-1.05141 -2.968895,-1.31373 -4.44866,-1.76988 -1.402053,-0.38922 -1.607176,-0.41057 -2.218102,-0.23092 -0.779212,0.22914 -0.985468,0.15674 -0.873073,-0.30649 0.06529,-0.26914 -0.03881,-0.38721 -0.550983,-0.62485 -0.626381,-0.29062 -0.637062,-0.29031 -1.317117,0.0387 -0.37709,0.18246 -0.740611,0.33175 -0.807826,0.33175 -0.06719,0 -0.867193,0.0827 -1.045486,-0.22479 -0.284381,-0.49047 0.229086,-0.71037 0.229086,-0.71037 l 0.356742,-0.1369 c 0.343322,-0.13175 0.345027,-0.14098 0.04543,-0.24523 -0.171195,-0.0596 -0.740059,-0.31069 -1.264144,-0.55803 -0.524025,-0.24734 -0.993793,-0.44971 -1.043868,-0.44971 -0.05004,0 -0.735365,-0.38101 -1.522872,-0.8467 -0.928203,-0.54886 -1.683216,-0.88068 -2.146515,-0.94337 -1.337837,-0.18102 -3.007754,-0.71583 -6.221103,-1.9924 -2.119928,-0.89247 -4.235148,-1.67314 -6.404614,-1.86749 -1.468826,-0.0382 -4.057595,-0.57722 -5.986515,-1.23115 -1.7747207,-0.60165 -4.4216297,-0.69297 -5.0580108,-2.44924 -0.2206461,-0.60894 0.2541144,-1.42537 0.8050572,-1.76889 1.0054013,-0.62687 2.3891296,-0.11125 3.5572629,0.094 2.4494227,0.43038 4.8965037,1.72575 7.0765557,2.35686 2.469783,0.95864 5.495186,1.2325 7.059005,1.51681 1.400128,0.25655 2.677189,0.46645 2.837914,0.46645 0.373249,0 2.500257,0.62759 4.115116,1.2142 0.687657,0.24981 2.347957,0.98828 3.689545,1.64105 1.747451,0.85026 2.783245,1.25522 3.652097,1.4278 1.99973,0.47868 2.300749,1.13126 4.616164,0.12749 0.177784,-0.12401 0.640331,-0.22949 1.027871,-0.23438 0.481422,-0.006 0.951099,-0.1507 1.482766,-0.45662 0.427988,-0.24626 1.333846,-0.73777 2.013009,-1.09224 0.679174,-0.35447 1.485966,-0.80238 1.792873,-0.99533 0.859625,-0.54046 2.357776,-1.11909 4.86377,-1.87854 1.607495,-0.18337 2.169491,-1.25682 3.202106,-1.96488 0.269135,-0.18455 0.545437,-0.47422 0.778149,-0.59374 0.3908,-0.20076 1.434607,-0.96393 2.623313,-1.918 0.268537,-0.21555 0.637313,-0.39189 0.819509,-0.39189 0.558324,0 1.571403,-0.37409 1.571403,-0.58025 0,-0.10712 0.104111,-0.19477 0.231359,-0.19477 0.333133,0 0.70243,-0.99599 0.70243,-1.89445 0,-0.84499 -0.104913,-0.98287 -1.837211,-2.41454 -0.443512,-0.36654 -1.03447,-1.01688 -1.313246,-1.4452 -0.30777,-0.47285 -0.705549,-0.86248 -1.012667,-0.99191 -0.472035,-0.19895 -0.505451,-0.26286 -0.500527,-0.95735 0.003,-0.4093 0.140596,-1.02317 0.305984,-1.36418 0.165389,-0.341 0.303077,-0.69772 0.305985,-0.7927 0.006,-0.20758 1.32491,-0.73359 1.600627,-0.63853 0.106929,0.0368 0.438487,-0.062 0.73681,-0.21964 0.298322,-0.15766 0.760288,-0.28666 1.026597,-0.28666 0.26631,0 0.687548,-0.0994 0.936096,-0.22085 0.248539,-0.12148 0.767048,-0.25372 1.152231,-0.29387 0.385184,-0.0401 0.889211,-0.12177 1.120058,-0.18138 0.672775,-0.17372 1.458285,0.19112 2.441999,1.13423 0.927631,0.88934 1.259681,1.56383 1.261637,2.56275 6.22e-4,0.32057 0.197742,0.63665 0.711757,1.14134 0,0 0.792442,0.34761 0.789247,0.69801 -0.0016,0.17487 -0.400172,0.34117 -0.400172,0.34117 -0.176992,0.18763 -0.32181,0.52437 -0.32181,0.74828 0,0.22392 -0.07752,0.45483 -0.172248,0.51315 -0.123076,0.0757 -1.810714,-0.12611 0.01665,0.2223 0.124229,0.0764 0.146002,0.24229 0.06358,0.48438 -0.0689,0.20246 -0.10709,0.43336 -0.08485,0.51312 0.129253,0.46323 -0.177544,0.85273 -0.873375,1.10876 -0.972281,0.35777 -1.128753,0.49021 -1.448728,1.22627 -0.642815,4.56384 0.119533,3.94046 2.436734,2.77926 0.490157,-0.14191 1.082108,-0.21064 1.362689,-0.15823 2.320001,-1.10317 5.510202,-1.79695 6.786899,-3.6459 0.101032,-0.20335 1.246623,-1.41763 2.545749,-2.69841 1.299145,-1.28076 3.051521,-3.07762 3.894197,-3.99304 1.090933,-1.18508 1.833139,-1.83945 2.57736,-2.27234 0.574892,-0.33439 1.391158,-0.89604 1.813945,-1.24813 0.422787,-0.35207 1.236146,-0.91471 1.807451,-1.25031 1.441631,-0.774 3.697984,-0.35532 3.697984,-0.0977 0,0.3559 -1.887999,0.025 -2.559874,0.28991 0.758514,-0.065 2.404808,0.31256 2.373018,0.6396 -0.03255,0.33492 -0.741645,0.10017 -1.011007,0.0719 -1.770186,-0.63197 -2.150032,0.50788 -2.356684,0.5702 -0.133336,0.0401 1.421572,-0.22243 1.421572,-0.22243 0.361157,0.22238 -0.108505,0.58798 -0.958531,0.74614 -0.51573,0.096 -1.012408,0.51078 -1.711752,1.09044 -0.531961,0.4409 -1.238777,0.93962 -1.570717,1.10829 -0.33195,0.16866 -0.713543,0.464 -0.847971,0.6563 -3.458608,4.94729 -6.176906,8.31644 -7.038336,8.72357 -0.290319,0.1372 -1.732959,1.03387 -3.205887,1.99261 -1.57749,1.02679 -3.757291,2.26802 -5.304243,3.02035 l -2.626212,1.2772 0.09999,0.65056 c 0.424548,2.76325 0.253563,3.77731 -0.900282,5.33915 -0.362237,0.49032 -0.949755,1.38821 -1.305594,1.99531 -0.782051,1.33423 -1.880396,2.35881 -3.627827,3.38413 -1.638145,0.96121 -4.006552,2.56083 -5.097004,3.44252 -0.457232,0.36969 -0.92033,0.67217 -1.029115,0.67217 -0.108774,0 -0.462156,0.20924 -0.78529,0.465 -0.323124,0.25576 -0.71633,0.46502 -0.873776,0.46502 -0.157455,0 -0.384872,0.15693 -0.50538,0.34874 -0.211251,0.33626 -0.464242,2.32462 -0.645898,5.07631 -0.24944,3.473 -1.178471,6.4178 -1.321008,9.7787 0,1.3123 -0.07091,1.6892 -0.640141,3.4048 0,0 -0.544922,1.2585 -0.64014,1.9292 -0.218077,1.5359 0.178486,4.65 0.178486,4.65 0.228912,5.964 0.367524,6.4439 0.948943,9.6103 0.05316,0.2895 0.155485,0.5678 0.231138,0.8525 0.08445,0.3176 0.215327,0.6272 0.248699,0.9541 0.222478,2.1796 -0.133506,6.128 -0.338629,6.5635 -0.08033,0.1705 -0.175056,1.0074 -0.210548,1.86 -0.0355,0.8524 -0.07,1.6612 -0.07682,1.7972 -0.007,0.1359 -0.215997,0.4277 -0.401169,0.6974 0,0 -0.238652,0.3937 -0.389075,0.5667 -0.300611,0.2993 -1.336159,0.1874 -1.439651,0.01 z m 4.863478,-58.87937 c 0.576659,-0.82711 2.050167,-1.92362 2.327328,-3.26312 0.09899,-0.50271 0.378985,-1.3674 0.622108,-1.92154 0.243123,-0.55413 0.421108,-1.02981 0.395524,-1.05706 -0.112796,-0.12014 -4.914507,2.39588 -5.753211,3.01459 -0.511358,0.37723 -1.176682,0.74789 -1.478494,0.82368 -0.301813,0.0758 -1.493026,0.36458 -2.647142,0.64174 -2.303218,0.55312 -4.107393,1.06691 -4.024413,1.14608 0.02928,0.0279 0.718527,0.0925 1.531697,0.14352 0.813171,0.051 2.038764,0.16192 2.723543,0.24645 0.68478,0.0844 1.525179,0.17735 1.867569,0.20632 1.100621,0.0931 4.435491,0.10763 4.435491,0.0194 z" id="path2996" inkscape:connector-curvature="0" sodipodi:nodetypes="ccccccacacsccccaccscccssccccscsccaaaaccssscccssscaccssssssccscccscscscsacscccccccccsscccscscsccccccssccssscscsccccasaaacccsccccccscsccccssc"/>
  </g>
</svg>