<svg width="100" height="100" xmlns="http://www.w3.org/2000/svg">
 <g>
  <title>Layer 1</title>
  <path id="svg_1" d="m61.161999,30.301001c1.969002,-1.970001 3.010998,-4.282001 3.010998,-6.687c0,-4.702 -2.507996,-6.712999 -3.572998,-7.355l-0.174,-11.244001h-2.688999l-0.195999,10.964c-1.396,0.403 -4.875999,1.708 -7.540001,5.209c-2.665001,-3.500999 -6.146,-4.806 -7.541,-5.209l-0.195999,-10.964h-2.688999l-0.173,11.244001c-1.064999,0.642 -3.573002,2.653 -3.573002,7.355c0,2.404999 1.042,4.716999 3.002003,6.678999c4.738998,4.888 5.042,10.575001  0.812,15.215c-3.675003,4.031002 -3.108002,7.874001 -2.970001,8.553001c0.028999,2.033001 1.070999,8.392998 2.506001,17.147999c1.084,6.620003 2.434998,14.857002 3.646,23.119003l0.096001,0.655998h3.413998l-3.91,-38.825001c-0.084,-0.842999 0.530003,-1.595001 1.373001,-1.68c0.839001,-0.081001 1.596001,0.529999 1.68,1.373001l3.939999,39.132h7.663002l0.095997,-0.655998c1.210003,-8.262001 2.561001,-16.5 3.646004,-23.119003c1.434998,-8.756001 2.476997,-15.116001 2.505997,-17.147999c0.138,-0.68 0.704998,-4.521999 -2.969997,-8.554001c-4.231003,-4.639 -3.928001,-10.326 0.802998,-15.205999z" fill="#000000"/>
 </g>
</svg>
