<svg xmlns="http://www.w3.org/2000/svg" xmlns:xlink="http://www.w3.org/1999/xlink" xmlns:sketch="http://www.bohemiancoding.com/sketch/ns" width="57.0422535211px" height="100px" viewBox="0 0 81 142" version="1.1">
    <title>trousers</title>
    <description>Created with Sketch (http://www.bohemiancoding.com/sketch)</description>
    <defs/>
    <g id="dress" stroke="none" stroke-width="1" fill="none" fill-rule="evenodd" sketch:type="MSPage">
        <path d="M0,63.615967 L5.051482,23.159692 C5.051482,23.159692 10.505314,20.235617 12.628704,17.854807 C14.714882,15.515719 17.680186,9 17.680186,9 C17.680186,9 29.143139,10.517103 40.411853,10.517106 C46.640571,10.517108 63.14352,9 63.14352,9 C63.14352,9 66.271097,15.789892 68.195001,17.854807 C70.118906,19.919721 75.772224,23.159692 75.772224,23.159692 C75.772224,23.159692 80.422391,52.366819 80.823705,63.615967 C81.815665,91.421367 78.297965,142 78.297965,142 L50.514816,142 C50.514816,142 53.040557,81.315588 42.850648,40.787396 C42.850648,40.787396 41.292786,38.457345 40.499998,38.457345 C39.659523,38.457345 37.950859,40.787396 37.950859,40.787396 C27.783149,81.315588 30.30889,142 30.30889,142 L0,142 L0,63.615967 L0,63.615967 Z M68.496585,15.895743 C67.003956,14.07953 65,8.83212 65,8.83212 L72.701646,8 L75,21 C75,21 70.33729,18.13549 68.496585,15.895743 L68.496585,15.895743 Z M12.503415,15.895743 C13.996044,14.07953 16,8.83212 16,8.83212 L8.298354,8 L6,21 C6,21 10.66271,18.13549 12.503415,15.895743 L12.503415,15.895743 Z M40.900768,6.999526 C29.846632,6.961434 8,4.582814 8,4.582814 L8.585902,0 C8.585902,0 29.810436,2.333173 40.900769,2.333175 C51.991101,2.333178 73.215635,0 73.215635,0 L74,4.810247 C74,4.810247 51.846632,7.037245 40.900768,6.999526 L40.900768,6.999526 Z" id="trousers" fill="#000000" sketch:type="MSShapeGroup"/>
    </g>
</svg>