<?xml version="1.0" encoding="utf-8"?>
<!-- Generator: Adobe Illustrator 16.0.4, SVG Export Plug-In . SVG Version: 6.00 Build 0)  -->
<!DOCTYPE svg PUBLIC "-//W3C//DTD SVG 1.1//EN" "http://www.w3.org/Graphics/SVG/1.1/DTD/svg11.dtd">
<svg version="1.1" id="Layer_1" xmlns="http://www.w3.org/2000/svg" xmlns:xlink="http://www.w3.org/1999/xlink" x="0px" y="0px"
	 width="50px" height="50px" viewBox="0 0 50 50" enable-background="new 0 0 50 50" xml:space="preserve">
<g>
	<path d="M39.501,18.216c0.318,0,0.626-0.047,0.924-0.118c-0.454-2.443-0.813-3.857-0.813-3.857
		c-0.875-0.883-2.161-1.602-3.475-2.169c-0.396,0.621-0.635,1.354-0.635,2.145C35.501,16.422,37.295,18.216,39.501,18.216z"/>
	<path d="M9.578,18.098c0.297,0.071,0.604,0.118,0.923,0.118c2.206,0,4-1.794,4-4c0-0.791-0.238-1.523-0.635-2.145
		c-1.313,0.568-2.6,1.286-3.475,2.169C10.391,14.24,10.031,15.654,9.578,18.098z"/>
	<path d="M39.501,19.216c-2.757,0-5-2.243-5-5c0-0.924,0.269-1.779,0.708-2.522c-2.2-0.835-4.222-1.238-4.222-1.238l-0.039-2.371
		c-1.797-1.032-3.731-1.269-5.031-1.328c-0.458-0.021-1.375-0.021-1.833,0c-1.299,0.06-3.234,0.296-5.031,1.328l-0.04,2.371
		c0,0-2.021,0.404-4.222,1.239c0.438,0.743,0.708,1.598,0.708,2.522c0,2.757-2.243,5-5,5c-0.379,0-0.746-0.051-1.101-0.131
		c-0.877,5.01-1.961,13.408-1.564,22.818h0.456v0.25c0,0.553,0.481,1,1.075,1h2.519c0.594,0,1.075-0.447,1.075-1v-0.25h0.465
		c0,0-0.479-14.776,2.076-18.562v13.843v1.244v3.337c0,0,4.791,1.321,8.783,1.493V9.08c0,0-2.236,0.13-3.553-0.387
		c0,0,0.28-0.936,3.354-0.903c0.458,0.005,1.374-0.007,1.833,0c3.045,0.048,3.354,0.903,3.354,0.903
		C27.954,9.21,25.718,9.08,25.718,9.08v34.179c3.992-0.172,8.783-1.493,8.783-1.493v-3.337v-1.243V23.341
		c2.555,3.785,2.076,18.563,2.076,18.563h0.464v0.25c0,0.552,0.48,1,1.074,1h2.52c0.594,0,1.075-0.448,1.075-1v-0.25h0.456
		c0.396-9.412-0.688-17.811-1.564-22.819C40.247,19.165,39.881,19.216,39.501,19.216z"/>
</g>
</svg>
