<svg xmlns="http://www.w3.org/2000/svg" xmlns:xlink="http://www.w3.org/1999/xlink" version="1.1" id="Layer_1" x="0px" y="0px" width="100px" height="100px" viewBox="0 0 100 100" enable-background="new 0 0 100 100" xml:space="preserve">
<path d="M92.4,44.107V33.145c0-3.36-2.725-6.085-6.084-6.085h-18.52v27.915C76.057,52.859,84.246,49.259,92.4,44.107z"/>
<path d="M31.955,27.06H13.984c-3.361,0-6.085,2.725-6.085,6.085v11.612c8.15,4.635,16.158,7.961,24.056,10.004V27.06z"/>
<path d="M56.742,58.619v4.768H43.138v-4.863C31.624,57.348,19.91,53.396,7.899,46.679v29.377c0,3.361,2.724,6.084,6.085,6.084  h72.333c3.359,0,6.084-2.723,6.084-6.084V46.075C80.621,53.357,68.773,57.541,56.742,58.619z"/>
<rect x="45.268" y="53.996" width="9.345" height="7.262"/>
<path d="M61.969,27.06v-2.976c0-4.287-3.488-7.774-7.773-7.774h-8.747c-4.287,0-7.774,3.487-7.774,7.774v2.976h-3.999v28.137  c3.17,0.746,6.324,1.291,9.463,1.623v-4.953h13.604v5.049c3.115-0.289,6.217-0.797,9.309-1.508V27.06H61.969z M41.055,24.084  c0-2.424,1.97-4.396,4.394-4.396h8.747c2.422,0,4.393,1.972,4.393,4.396v2.976H41.055V24.084z"/>
</svg>